<svg xmlns="http://www.w3.org/2000/svg" width="843.76" height="866.56" viewBox="0 0 632.82 649.92"><path d="M387.244 523.5c-.548-24.696-.996-36.028-2.034-59.551l-.014-.321h-7.737l.03.364c1.768 22.898 2.481 36.319 3.471 54.891l.245 4.617zm54.086-6.002c-4.75 0-9.066-2.073-11.503-5.239 2.226-6.678 6.75-12.859 12.434-17.009 3.985 6.276 6.714 11.997 9.344 19.602-3.173 1.948-7.363 2.646-10.275 2.646m16.479-2.163c.03-4.419-7.323-19.856-13.311-29.134-1.502.734-4.078 2.665-5.682 3.946-8.439 6.774-14.309 15.742-14.309 21.889 0 6.959 7.291 12.617 16.254 12.617 5.503 0 10.831-1.384 14.746-3.955zm-92.163-51.386-.011-.321h-7.739l.031.364c1.626 21.056 2.348 33.808 3.325 52.142h-34.631c-3.295 0-5.691-1.806-7.773-5.85-3.087-5.8-5.061-14.355-6.214-26.919l-.043-.467-6.688 2.906.036.255c1.799 12.623 4.887 23.043 8.682 29.333.229.384.461.718.713 1.066-3.886.669-7.632.812-12.018.812-5.246 0-9.85-.491-14.931-1.583l-.346-.074-1.251 7.023.31.073c5.07 1.235 10.734 1.944 15.54 1.944 4.935 0 10.162-.139 14.958-1.146l.206-.043.817-3.177c2.342 2.084 4.886 3.16 7.438 3.167l.237.06 41.4-.014-.01-.345c-.545-24.925-.993-35.527-2.038-59.206m181.267 42.913c.901-7.77 5.685-14.59 10.235-14.59 5.698 0 9.629 8.512 10.546 22.798-10.532-1.537-16.978-4.153-20.781-8.208m11.142-21.632c-9.336 0-16.362 13.169-16.362 21.708 0 7.311 7.983 12.157 24.405 14.813-2.61 5.956-7.297 10.818-12.613 13.063-2.915 1.299-7.423 2.018-13.396 2.134l-.304.003-.285 3.13 16.827 2.249c10.719-7.952 16.617-18.585 16.617-29.935 0-16.502-5.843-27.165-14.889-27.165m-32.557 1.212-7.213 4.105.149.291c4.998 9.765 8.039 17.697 9.864 25.544-2.745 8.788-8.632 15.76-15.385 18.211-3.022 1.351-7.774 2.232-12.717 2.355l-.314.007-.139 3.13 16.81 2.242c10.343-7.873 16.273-18.118 16.273-28.114 0-6.224-2.216-14.677-7.185-27.402zM503.939 523.5c-.543-24.687-.993-36.021-2.03-59.551l-.014-.321h-7.738l.031.364c1.769 22.898 2.481 36.319 3.471 54.891l.246 4.617zm-27.75-37.058-7.216 4.105.15.291c4.998 9.765 8.04 17.697 9.865 25.544-2.746 8.788-8.633 15.76-15.386 18.211-3.02 1.351-7.774 2.232-12.715 2.355l-.316.007-.139 3.13 16.81 2.242c10.345-7.873 16.272-18.118 16.272-28.114 0-6.224-2.214-14.677-7.184-27.402zm-37.691-11.704-5.932-5.683-6.273 6.518 6.426 5.81zm13.527.119-5.931-5.802-6.274 6.518 6.422 5.807zm73.882-.115-5.93-5.687-6.276 6.521 6.426 5.81zm-254.17-5.428-5.932-5.686-6.275 6.518 6.427 5.81zm3.457 40.843c-9.471-1.941-14.06-3.898-20.125-8.307.689-7.95 5.415-14.922 10.119-14.922 5.889 0 10.006 9.304 10.006 22.623zm-9.098-30.27c-9.925 0-16.254 14.477-16.254 22.05 0 6.193 6.874 10.565 22.369 14.196H114.987c-.205-17.963-.662-27.675-1.491-45.223l-.341-7.284h-7.741l.034.368c2.195 24.577 3.04 40.317 3.753 59.194l.01.324H279.62l.053-.272c.323-1.616 1.311-12.304 1.311-14.937 0-17.794-5.564-28.416-14.888-28.416M99.548 531.728c-8.714 2.265-12.1 3.06-15.83 3.06-6.773 0-12.279-1.629-15.921-4.713a6.574 6.574 0 0 1-1.494-1.811c-1.335-2.366-.825-5.585 1.235-7.825.209-.224.425-.443.5-.576 6.913-2.06 15.244-3.55 23.462-4.193l.252-.02 1.629-7.525-.47.053c-5.555.655-10.692 1.537-15.131 2.616-6.887-1.272-11.984-6.905-12.72-13.832 2.697-5.177 8.37-8.797 13.793-8.797 2.769 0 5.317.655 10.103 2.59l.278.113 1.55-2.819-.27-.169c-1.767-1.133-3.131-2.156-4.454-3.147-1.745-1.308-3.394-2.546-5.958-3.948-9.768 0-20.229 7.532-20.229 18.751 0 5.531 3.355 11.295 8.404 14.525-.49.267-2.11 1.214-2.11 1.214-1.024.65-1.971 1.763-2.812 3.31-3.05 5.624-2.703 12.275.89 16.942 2.174 2.822 5.135 4.773 8.57 5.637 3.226.818 6.86 1.232 10.794 1.232h.073l.064-.026c3.07-1.348 5.68-2.544 8.218-3.706 2.818-1.289 5.544-2.537 8.714-3.909l.295-.129-1.13-2.975M78.092 572.758l-11.885-16.742h-6.334l2.153 3.01v31.02h4.307v-24.99l10.912 15.284 11.387-15.237v24.943h5.155v-34.03h-2.914M267.125 570.837l-7.748-14.553-.147-.268h-5.744l10.393 19.678v14.352h5.151v-13.988l11.136-20.042h-4.848M242.801 568.098a7.954 7.954 0 0 1-1.127 1.977 8.886 8.886 0 0 1-1.44 1.474 7.367 7.367 0 0 1-1.536.972h-6.694v-13.154h2.91c2.822 0 4.941.495 6.299 1.474 1.351.977 2.033 2.587 2.033 4.785 0 .91-.148 1.74-.445 2.472m.903 5.44a11.298 11.298 0 0 0 2.228-1.99 11.271 11.271 0 0 0 1.751-2.786c.474-1.06.718-2.275.718-3.612 0-1.618-.313-3.047-.929-4.248a8.594 8.594 0 0 0-2.552-3.001c-1.07-.791-2.356-1.399-3.819-1.806-1.45-.402-3.066-.606-4.799-.606-2.126 0-3.909.107-5.297.316a69.603 69.603 0 0 0-3.75.662l-.405.083v33.496h5.154v-13.805l4.941.052 9.864 13.753h6.443l-11.654-15.358c.63-.25 1.339-.638 2.106-1.15M104.555 590.046h5.154v-34.03h-5.154zM157.716 590.046h5.155v-34.03h-5.155zM142.588 579.378l-18.667-23.362h-6.447l3.425 4.281v29.75h4.307v-24.315l19.36 24.314h2.379v-34.03h-4.357M195.803 560.215h10.102v29.831h5.154v-29.83h9.242l1.618-4.2h-26.116M189.627 575.733v-.001a12.79 12.79 0 0 0-1.968-1.831 27.694 27.694 0 0 0-2.007-1.376l-3.122-1.96a39.604 39.604 0 0 1-1.908-1.161 10.77 10.77 0 0 1-1.604-1.261 5.934 5.934 0 0 1-1.13-1.474c-.279-.522-.42-1.138-.42-1.835 0-.833.175-1.585.525-2.231a4.62 4.62 0 0 1 1.42-1.602 6.491 6.491 0 0 1 2.021-.946 8.885 8.885 0 0 1 2.395-.318c1.575 0 2.984.328 4.193.975a12.32 12.32 0 0 1 2.303 1.589l.845.742v-5.377l-.248-.15a11.64 11.64 0 0 0-1.045-.546 15.667 15.667 0 0 0-1.8-.688 18.98 18.98 0 0 0-2.096-.531c-2.472-.47-4.825-.166-6.79.479-1.393.455-2.605 1.126-3.607 1.989a8.862 8.862 0 0 0-2.338 3.135c-.547 1.21-.824 2.577-.824 4.06 0 1.663.501 3.226 1.491 4.652.982 1.424 2.603 2.84 4.821 4.214l4.42 2.67c.493.29.998.664 1.498 1.107.482.43.909.936 1.266 1.5.347.556.521 1.207.521 1.939 0 .766-.167 1.464-.498 2.07a5.062 5.062 0 0 1-1.341 1.575 6.35 6.35 0 0 1-1.921 1.027 6.848 6.848 0 0 1-2.234.37c-1.816 0-3.432-.311-4.797-.922a18.169 18.169 0 0 1-2.982-1.697l-.936-.66.749 5.883.291.106c1.112.412 2.323.76 3.594 1.038 1.374.298 2.854.45 4.397.45 1.55 0 3.011-.232 4.353-.69 1.342-.46 2.513-1.122 3.474-1.963a9.046 9.046 0 0 0 2.287-3.08c.545-1.2.821-2.54.821-3.985 0-1.061-.198-2.045-.583-2.922a9.42 9.42 0 0 0-1.486-2.363M542.495 575.732c-.597-.686-1.26-1.301-1.965-1.831a27.14 27.14 0 0 0-2.011-1.376l-3.121-1.96a39.428 39.428 0 0 1-1.904-1.161 10.398 10.398 0 0 1-1.605-1.263 5.892 5.892 0 0 1-1.131-1.472c-.28-.527-.422-1.143-.422-1.835 0-.833.175-1.585.524-2.231a4.597 4.597 0 0 1 1.42-1.6 6.462 6.462 0 0 1 2.027-.948 8.817 8.817 0 0 1 2.393-.318c1.576 0 2.983.328 4.189.975.847.456 1.625.99 2.304 1.589l.844.742v-5.377l-.248-.15a11.248 11.248 0 0 0-1.041-.546 15.23 15.23 0 0 0-1.803-.688 18.903 18.903 0 0 0-2.097-.531c-2.484-.478-4.825-.166-6.788.479-1.394.457-2.61 1.128-3.609 1.989a8.89 8.89 0 0 0-2.337 3.135c-.547 1.219-.825 2.585-.825 4.06 0 1.66.506 3.225 1.494 4.652.983 1.424 2.604 2.84 4.822 4.214l4.416 2.673c.498.288 1.002.66 1.5 1.104.488.437.913.94 1.266 1.5.346.556.52 1.207.52 1.939 0 .766-.165 1.464-.494 2.07a5.053 5.053 0 0 1-1.344 1.577 6.45 6.45 0 0 1-1.918 1.025 6.861 6.861 0 0 1-2.237.37c-1.818 0-3.432-.311-4.798-.922a18.298 18.298 0 0 1-2.978-1.696l-.937-.661.745 5.883.291.106c1.124.414 2.333.762 3.595 1.038a20.81 20.81 0 0 0 4.4.45c1.55 0 3.012-.233 4.35-.69 1.341-.46 2.512-1.122 3.478-1.965a9.034 9.034 0 0 0 2.284-3.078c.543-1.2.82-2.54.82-3.985 0-1.066-.198-2.05-.58-2.922a9.326 9.326 0 0 0-1.489-2.364M466.756 574.76h9.561l1.562-3.987h-11.123V560h11.782l1.618-3.984h-18.555v34.03h17.356l2.155-4.142h-14.356M436.161 590.046h5.155V575.5h9.822l1.617-3.986h-11.439V560h12.096l1.618-3.984h-18.869M322.488 573.083c0 1.952-.257 3.773-.765 5.413-.507 1.628-1.242 3.047-2.188 4.217a9.973 9.973 0 0 1-3.529 2.768c-1.402.666-3.016 1.004-4.799 1.004-1.786 0-3.402-.338-4.799-1.006a10.207 10.207 0 0 1-3.557-2.764c-.962-1.165-1.697-2.584-2.191-4.219-.491-1.626-.738-3.447-.738-5.413 0-1.922.256-3.732.764-5.382.504-1.639 1.242-3.067 2.189-4.249a10.032 10.032 0 0 1 3.533-2.766c1.4-.665 3.013-1.002 4.799-1.002 1.783 0 3.397.337 4.799 1.002a9.962 9.962 0 0 1 3.526 2.766c.949 1.177 1.687 2.606 2.191 4.247.508 1.657.765 3.47.765 5.384m.752-12.692a15.538 15.538 0 0 0-5.304-3.657c-2.043-.864-4.303-1.3-6.729-1.3-2.423 0-4.687.436-6.734 1.3a15.53 15.53 0 0 0-5.302 3.657c-1.481 1.57-2.647 3.451-3.471 5.592-.827 2.141-1.246 4.531-1.246 7.1 0 2.604.419 5.011 1.246 7.155.82 2.14 1.99 4.011 3.471 5.57 1.479 1.546 3.265 2.766 5.302 3.63 2.04.861 4.305 1.297 6.734 1.297 2.426 0 4.689-.436 6.729-1.298 2.044-.866 3.827-2.096 5.3-3.66 1.477-1.556 2.644-3.438 3.474-5.593.828-2.148 1.25-4.538 1.25-7.1 0-2.565-.422-4.953-1.25-7.1-.83-2.154-1.997-4.036-3.47-5.593M558.584 585.904v-11.145h9.562l1.561-3.986h-11.123V560h11.782l1.618-3.985H553.43v34.03h17.358l2.155-4.142M511.329 579.38l-18.672-23.364h-6.445l3.427 4.281v29.75h4.307v-24.315l19.358 24.314h2.382v-34.03h-4.357M413.752 574.76h9.562l1.565-3.987h-11.127V560h11.784l1.618-3.984h-18.552v34.03h17.355l2.156-4.142h-14.361M335.552 590.046h5.151V575.5h9.826l1.618-3.986h-11.444V560h12.1l1.618-3.984h-18.869M395.537 573.243a15.6 15.6 0 0 1-.817 5.013 14.016 14.016 0 0 1-2.34 4.325 11.39 11.39 0 0 1-3.759 3.034c-2.21 1.12-5.067 1.41-7.994.869a31.057 31.057 0 0 1-2.206-.466v-26.652h3.809c2.134 0 4.045.347 5.684 1.03 1.641.683 3.038 1.644 4.149 2.85 1.115 1.202 1.985 2.676 2.58 4.377.594 1.711.894 3.6.894 5.62m.831-12.96c-1.497-1.53-3.352-2.726-5.515-3.553-2.168-.823-4.637-1.242-7.339-1.242-2.175 0-4.1.107-5.718.316a62.99 62.99 0 0 0-4.12.668l-.41.08v32.8l.38.102c1.166.31 2.561.598 4.145.857 1.728.284 3.637.425 5.67.425 2.64 0 5.071-.43 7.234-1.275 2.166-.841 4.031-2.055 5.541-3.602 1.512-1.553 2.699-3.416 3.523-5.54.827-2.122 1.248-4.52 1.248-7.13 0-2.701-.402-5.17-1.193-7.34-.791-2.16-1.95-4.031-3.446-5.567" fill="#637378"/><path d="M321.685 74.847h-10.553a5.278 5.278 0 0 1 10.553 0" fill="#d4b978"/><path d="M321.685 74.847a5.276 5.276 0 1 1-10.553 0" fill="#95853a"/><path d="M316.409 59.879v-.001.001c-1.084 2.995-3.823 7.72-3.823 7.72h7.647s-2.74-4.725-3.824-7.72" fill="#d4b978"/><path d="M316.409 67.599h-3.823l2.219 2.22a5.271 5.271 0 0 1 1.603-.249h.002c.56 0 1.098.088 1.603.249l2.22-2.22" fill="#95853a"/><path d="M260.836 171.925c-.498.325-.993.66-1.489.994l1.073 1.377c.507-.342 1.014-.687 1.527-1.018a99.878 99.878 0 0 1 45.812-15.679c.007-.583.047-1.162.077-1.742a101.632 101.632 0 0 0-47 16.068M243.904 164.823a118.932 118.932 0 0 0-23.625 24.706l-1.527-.852a120.622 120.622 0 0 1 24.086-25.229M316.409 393.085c-1.753 0-3.498-.035-5.235-.101.225.246.452.488.68.726l1.026 1.067c1.173.03 2.349.047 3.529.047 1.181 0 2.356-.017 3.529-.047l1.026-1.067c.228-.238.456-.48.681-.726-1.737.066-3.482.101-5.236.101M299.577 321.352c3.646 1.015 6.927 1.59 10.619 1.934l-.002 1.741c-3.518-.316-6.565-.823-10.024-1.721" fill="#949fa3"/><path d="M183.24 225.338a20.41 20.41 0 0 0 1.651.562h.001c12.215-50.4 52.726-89.867 103.695-100.562a19.745 19.745 0 0 0-.806-1.605c-51.361 10.958-92.16 50.779-104.541 101.605M210.871 205.168a117.103 117.103 0 0 0-8.616 22.947c-.607.007-1.205.01-1.8.008h.002a118.766 118.766 0 0 1 8.836-23.684M199.998 238.82c-1 6.172-1.523 12.503-1.523 18.953 0 8.391.884 16.579 2.559 24.479-.552.197-1.1.399-1.648.606a119.611 119.611 0 0 1-2.65-25.085c0-6.545.532-12.969 1.546-19.232M388.599 164.577a118.907 118.907 0 0 1 26.126 28.13 49.312 49.312 0 0 1 2.032-.071h.001a120.636 120.636 0 0 0-27.093-29.434M361.07 207.143a68.644 68.644 0 0 1 5.551 5.504l-1.605.818A65.743 65.743 0 0 0 360 208.52M368.377 190.657a85.668 85.668 0 0 1 14.148 13.888l-1.582.805a83.91 83.91 0 0 0-13.63-13.32M377.957 178.302a101.488 101.488 0 0 1 18.764 19.03v.001a47.883 47.883 0 0 1 1.622-.737 103.192 103.192 0 0 0-19.322-19.667M182.288 229.531a137.141 137.141 0 0 0-2.929 28.243c0 16.201 2.827 31.755 8.012 46.194l1.568-.786c-5.073-14.2-7.841-29.486-7.841-45.408 0-8.997.884-17.79 2.568-26.299-.589-.704-1.036-1.314-1.375-1.943M214.468 249.209c-.234 2.824-.355 5.68-.355 8.564 0 6.992.707 13.822 2.049 20.423l1.721-.26a100.667 100.667 0 0 1-2.032-20.163c0-2.814.119-5.601.345-8.357a37.838 37.838 0 0 1-1.722-.207M231.491 257.582a84.952 84.952 0 0 0 1.883 18.014l1.723-.26a83.21 83.21 0 0 1-1.868-17.714h.001a53.395 53.395 0 0 1-1.738-.04M249.185 264.345c.245 2.56.641 5.076 1.168 7.544l1.603-.816a65.424 65.424 0 0 1-1.026-6.748l.002-.001c-.724.003-1.102.014-1.751.024M256.528 359.345c14.807 8.802 31.494 14.334 49.532 15.91 0 0-5.226.199-9.128.604-15.013-2.467-28.411-7.332-41.004-14.851 0 0 .505-1.274.6-1.663M262.987 342.934c3.924 2.498 7.585 4.45 11.848 6.394.241.603.506 1.205.793 1.808l.271.568a94.893 94.893 0 0 1-13.586-7.191M292.748 392.778c-.262-.61-.518-1.243-.666-1.885-19.478-3.551-37.514-11.286-53.141-22.236l.005-.004c-3.103-1.426-9.746-5.234-9.746-5.234 17.934 14.829 39.691 25.19 63.548 29.359M270.681 327.226a83.16 83.16 0 0 0 4.811 2.949l-.713 1.592a83.393 83.393 0 0 1-4.979-3.039M310.194 340.723v1.742a84.25 84.25 0 0 1-26.363-6.271 23.906 23.906 0 0 1-1.071-1.69 20.41 20.41 0 0 1-.48-.881 82.47 82.47 0 0 0 27.914 7.1M225.079 211.718a101.435 101.435 0 0 0-6.327 15.576l.001-.001 1.861-.12a99.71 99.71 0 0 1 6.045-14.727M242.13 216.646a84.76 84.76 0 0 0-4.801 10.176 59.51 59.51 0 0 1 1.816.142 82.331 82.331 0 0 1 4.534-9.527M257.623 224.541a67.131 67.131 0 0 0-3.432 6.951v-.001c.502.299.998.612 1.489.942a65.462 65.462 0 0 1 3.493-7.101M272.66 208.659l-1.064-1.378a68.112 68.112 0 0 0-8.104 8.566l1.584.807a66.28 66.28 0 0 1 7.584-7.995M264.125 190.902a85.616 85.616 0 0 0-16.355 16.934l1.566.798a83.935 83.935 0 0 1 15.855-16.358M253.482 177.175a103.157 103.157 0 0 0-19.449 20.018l1.53.853a101.433 101.433 0 0 1 18.983-19.498" fill="#949fa3"/><path d="M449.579 225.338a20.58 20.58 0 0 1-1.652.562c-12.216-50.4-52.727-89.867-103.697-100.562.222-.495.489-1.038.807-1.605 51.361 10.958 92.161 50.779 104.542 101.605M332.719 323.325a64.508 64.508 0 0 1-10.097 1.702v-1.741a62.965 62.965 0 0 0 10.606-1.893M377.154 360.852a118.83 118.83 0 0 1-41.269 15.007c-3.9-.405-9.127-.605-9.127-.605a117.091 117.091 0 0 0 49.817-16.079M370.623 344.491a102.37 102.37 0 0 1-13.703 7.213l.269-.568c.288-.604.554-1.205.793-1.809a99.965 99.965 0 0 0 11.904-6.427M403.618 363.418s-6.645 3.809-9.747 5.234l.005.005c-15.626 10.95-33.662 18.684-53.14 22.236-.148.642-.406 1.274-.666 1.884 23.859-4.169 45.615-14.529 63.548-29.359M361.78 327.461a83.167 83.167 0 0 1-4.455 2.715l.714 1.592a85.155 85.155 0 0 0 4.611-2.798M350.539 333.625c-.152.295-.312.588-.48.879a23.836 23.836 0 0 1-1.073 1.69 84.215 84.215 0 0 1-26.363 6.271v-1.742a82.533 82.533 0 0 0 27.916-7.098" fill="#949fa3"/><path d="M419.35 200.274a117.07 117.07 0 0 1 11.213 27.84c.605.008 1.205.011 1.799.009a118.892 118.892 0 0 0-11.87-29.364 48.377 48.377 0 0 1-1.142 1.515M405.985 212.105a99.67 99.67 0 0 1 6.219 15.068l1.862.12v.001a101.572 101.572 0 0 0-6.603-16.117c-1.143.748-1.35.851-1.478.928M390.561 220.104a82.19 82.19 0 0 1 3.112 6.861c.595-.057 1.2-.104 1.816-.143a84.721 84.721 0 0 0-3.38-7.507M375.08 227.993l1.549-.789a67.046 67.046 0 0 1 1.996 4.287 32.82 32.82 0 0 0-1.487.941 66.714 66.714 0 0 0-2.058-4.439M434.536 238.541l-1.716.279a118.34 118.34 0 0 1 1.524 18.954c0 9.293-1.082 18.339-3.124 27.018l1.794-.038a119.616 119.616 0 0 0 3.068-26.98c0-6.546-.53-12.97-1.546-19.233M418.343 249.21c-.558.078-1.126.15-1.722.206.227 2.757.345 5.544.345 8.357 0 7.425-.811 14.664-2.347 21.635l1.617.738a102.294 102.294 0 0 0 2.468-22.373c0-2.883-.121-5.74-.355-8.564M399.588 257.622c.214 0 .427-.002.637-.006l.104-.005c.339-.008.668-.014.996-.029a84.694 84.694 0 0 1-2.164 19.28l-1.788.018a83.016 83.016 0 0 0 2.215-19.258M381.885 264.325c.541.002 1.053.009 1.527.021l.224.002h-.003a67.016 67.016 0 0 1-2.17 11.608l-1.58-.806a65.419 65.419 0 0 0 2.005-10.825" fill="#949fa3"/><path d="M239.375 109.241c-5.7 4.943-9.979 10.433-12.807 16.098-2.83 5.667-4.082 11.192-4.154 16.343 3.731-10.95 9.279-21.926 16.961-32.441M254.36 104.497c-5.985 4.145-10.661 8.905-13.977 13.943-3.318 5.048-5.117 10.093-5.757 14.912 4.786-9.901 11.275-19.664 19.734-28.855M269.367 101.228c-6.17 3.392-11.146 7.434-14.857 11.854-3.713 4.418-5.982 8.974-7.125 13.408 5.676-8.813 12.93-17.359 21.982-25.262M224.563 115.62c-5.311 5.775-9.089 12.009-11.34 18.277-2.252 6.271-2.879 12.225-2.323 17.655l.002-.002c2.52-11.925 6.948-24.084 13.661-35.93M201.651 407.736c14.654 5.586 29.715 7.446 43.462 6.046 12.568-1.271 23.375-5.113 31.992-10.405-.529-.118-1.058-.236-1.585-.359-23.358 6.71-48.634 8.646-73.869 4.718M178.944 386.558c12.57 7.608 25.95 11.783 38.64 12.673 12.007.855 22.736-1.194 31.662-5.05-.281-.126-.563-.252-.844-.38-22.508 2.774-46.294.605-69.458-7.243M161.575 362.831c10.56 9.156 22.261 15.199 33.8 18.051 11.203 2.778 21.619 2.471 30.64.088l-.393-.28c-21.288-.879-43.241-6.698-64.047-17.859M149.067 337.609c8.638 10.268 18.683 17.781 29.011 22.265 10.135 4.407 19.96 5.731 28.82 4.836l-.208-.215c-19.677-4.183-39.442-13.113-57.623-26.886M140.952 311.782c6.814 10.997 15.244 19.602 24.326 25.411 8.904 5.697 17.92 8.45 26.379 8.972l-.168-.249c-17.766-7.028-35.113-18.452-50.537-34.134M136.77 286.088c5.104 11.387 11.973 20.763 19.794 27.592 7.615 6.656 15.692 10.598 23.57 12.381a37.983 37.983 0 0 0-.167-.352c-15.679-9.354-30.526-22.667-43.197-39.621M136.079 261.128c3.507 11.493 8.885 21.324 15.455 28.912 6.325 7.307 13.387 12.183 20.551 15.034l-.153-.498c-13.509-11.153-25.852-25.786-35.853-43.448M138.453 237.374c2.031 11.351 5.999 21.387 11.343 29.476 5.063 7.675 11.067 13.225 17.417 16.943-.035-.225-.072-.45-.106-.675-11.305-12.448-21.198-27.874-28.654-45.744M143.489 215.183c.68 11.004 3.325 21.02 7.481 29.391 3.893 7.849 8.881 13.869 14.407 18.253l-.012-.727c-9.758-13.751-16.935-29.725-21.876-46.917M150.807 194.814c-.546 10.496.871 20.298 3.892 28.753 2.82 7.9 6.865 14.242 11.598 19.119l.082-.732c-7.435-14.011-12.745-30.384-15.572-47.14M160.051 176.435c-1.646 9.856-1.355 19.29.591 27.662 1.828 7.863 4.993 14.394 8.977 19.635l.167-.693c-5.002-13.742-8.839-30.462-9.735-46.604M170.891 160.14c-2.618 9.125-3.354 18.062-2.41 26.205.896 7.733 3.232 14.357 6.497 19.842.064-.172.13-.342.195-.513-3.309-13.721-5.158-30.004-4.282-45.534M183.026 145.958c-3.47 8.323-5.124 16.668-5.106 24.464.017 7.515 1.56 14.132 4.127 19.753l.173-.332c-1.728-13.534-1.729-29.061.806-43.885M196.178 133.862c-4.199 7.485-6.668 15.168-7.493 22.519-.808 7.197-.027 13.691 1.855 19.354l.119-.18c-.232-13.179 1.439-27.708 5.519-41.693M210.098 123.783c-4.812 6.632-7.987 13.602-9.57 20.436-1.569 6.776-1.514 13.054-.306 18.649l.056-.065a132.849 132.849 0 0 1 9.82-39.02M302.166 409.663c-22.461 9.527-46.802 14.984-71.993 15.473 16.795 3.032 33.511 2.12 48.191-1.898 9.168-2.511 17.211-6.093 24.016-10.35a3.37 3.37 0 0 1-.214-1.189" fill="#409656"/><path d="M232.252 125.312c2.966-5.525 5.403-10.864 7.123-16.072-7.682 10.515-13.229 21.492-16.962 32.442 3.53-5.414 6.868-10.842 9.839-16.37M245.838 118.924c3.437-4.91 6.336-9.696 8.521-14.426-8.459 9.19-14.948 18.953-19.734 28.855 3.979-4.74 7.772-9.519 11.213-14.429M259.7 113.993c3.818-4.289 7.095-8.525 9.667-12.766-9.052 7.904-16.306 16.45-21.982 25.263 4.336-4.074 8.494-8.202 12.315-12.497M302.166 407.352c-11.811 2.921-22.998 5.454-33.771 7.934-14.097 3.244-26.763 6.261-38.222 9.851 25.191-.49 49.532-5.947 71.993-15.474" fill="#006f2f"/><path d="M302.757 404.167c-72.138-5.443-122.812-57.071-132.311-123.427-9.664-68.999 25.65-130.028 82.332-155.747 7.003-3.294 14.784-5.806 16.681-6.448l-.09-.276-4.475 1.382c-21.049 6.777-39.183 17.847-53.989 31.895 2.988-6.081 5.777-12.142 8.185-18.266 2.405-6.124 4.297-11.996 5.473-17.661-6.713 11.846-11.141 24.006-13.661 35.93l-.002.002a141.564 141.564 0 0 0-10.527 11.138c2.309-6.606 4.419-13.173 6.149-19.756 1.756-6.698 3.019-13.063 3.576-19.15a132.85 132.85 0 0 0-9.82 39.019l-.056.066a143.375 143.375 0 0 0-9.364 12.393c1.545-7.023 2.9-13.974 3.881-20.913 1.019-7.214 1.572-14.043 1.439-20.487-4.08 13.986-5.751 28.514-5.519 41.693l-.119.18a146.392 146.392 0 0 0-8.042 13.573c.727-7.317 1.27-14.554 1.455-21.731.196-7.671-.037-14.878-.927-21.618-2.536 14.824-2.535 30.351-.806 43.885l-.173.332a148.691 148.691 0 0 0-6.566 14.691c-.135-7.507-.439-14.921-1.082-22.241-.708-8.03-1.798-15.543-3.508-22.485-.876 15.529.972 31.813 4.282 45.534-.065.171-.131.341-.195.513a151.498 151.498 0 0 0-4.925 15.789c-1.032-7.62-2.215-15.127-3.72-22.517-1.688-8.28-3.7-15.982-6.282-23.024.896 16.141 4.733 32.861 9.735 46.603l-.167.693a153.58 153.58 0 0 0-3.078 16.894c-1.982-7.677-4.094-15.231-6.506-22.64-2.737-8.395-5.73-16.157-9.228-23.172 2.828 16.757 8.137 33.13 15.572 47.14l-.082.733a154.85 154.85 0 0 0-.947 18.015c-3.021-7.696-6.141-15.267-9.545-22.658-3.847-8.344-7.868-16.017-12.317-22.86 4.942 17.192 12.119 33.165 21.876 46.917l.012.726c.123 6.345.639 12.72 1.555 19.088-4.195-7.662-8.449-15.199-12.968-22.517-5.008-8.108-10.093-15.519-15.511-22.023 7.456 17.869 17.349 33.295 28.655 45.743a156.266 156.266 0 0 0 4.561 20.562c-5.529-7.475-11.056-14.842-16.821-21.953-6.207-7.655-12.378-14.612-18.769-20.599 10.001 17.663 22.345 32.295 35.854 43.449l.152.497a157.89 157.89 0 0 0 7.597 20.007c-6.951-6.964-13.817-13.858-20.869-20.47-7.429-6.961-14.692-13.25-22.042-18.523 12.671 16.954 27.518 30.267 43.197 39.621l.167.352a143.89 143.89 0 0 0 11.043 19.398c-8.405-6.088-16.623-12.154-24.95-17.937-8.658-6.017-16.999-11.393-25.276-15.74 15.424 15.682 32.773 27.106 50.537 34.135l.169.249a139.063 139.063 0 0 0 14.643 17.929c-9.814-4.806-19.317-9.682-28.83-14.281-9.875-4.776-19.259-9.001-28.403-12.205 18.18 13.774 37.946 22.703 57.623 26.887l.208.214a137.54 137.54 0 0 0 18.011 15.473c-10.987-3.124-21.541-6.405-31.984-9.467-11.055-3.239-21.423-6.06-31.351-7.884 20.806 11.16 42.759 16.98 64.047 17.859l.394.279a139.147 139.147 0 0 0 20.923 12.152c-11.753-1.145-22.973-2.544-33.96-3.803-12.171-1.397-23.437-2.526-34.034-2.76 23.164 7.848 46.95 10.017 69.458 7.242l.843.381a143.552 143.552 0 0 0 23.599 8.186c-12.133.947-23.655 1.556-34.833 2.207-13.197.766-25.239 1.581-36.359 3.161 25.234 3.929 50.509 1.992 73.868-4.718a150.774 150.774 0 0 0 26.644 3.712h.001v-.644c0-.709.217-1.37.592-1.918" fill="#006f2f"/><path d="M393.443 109.241c5.7 4.943 9.978 10.433 12.807 16.098 2.831 5.667 4.081 11.192 4.154 16.343-3.732-10.95-9.28-21.926-16.961-32.441M378.457 104.497c5.986 4.145 10.661 8.905 13.979 13.943 3.316 5.048 5.116 10.093 5.757 14.912-4.786-9.901-11.277-19.664-19.736-28.855M363.451 101.228c6.17 3.392 11.146 7.434 14.857 11.854 3.714 4.418 5.982 8.974 7.125 13.408-5.675-8.813-12.93-17.359-21.982-25.262M408.254 115.62c5.311 5.775 9.089 12.009 11.341 18.277 2.251 6.271 2.878 12.225 2.323 17.655l-.003-.002c-2.519-11.925-6.947-24.084-13.661-35.93M431.166 407.736c-14.653 5.586-29.714 7.446-43.461 6.046-12.567-1.271-23.375-5.113-31.991-10.405.529-.118 1.056-.236 1.584-.359 23.357 6.71 48.634 8.646 73.868 4.718M453.873 386.558c-12.569 7.608-25.95 11.783-38.639 12.673-12.007.855-22.736-1.194-31.663-5.05.283-.126.565-.252.845-.38 22.507 2.774 46.295.605 69.457-7.243M471.243 362.831c-10.559 9.156-22.261 15.199-33.8 18.051-11.202 2.778-21.62 2.471-30.64.088l.393-.28c21.288-.879 43.241-6.698 64.047-17.859M483.75 337.609c-8.637 10.268-18.682 17.781-29.009 22.265-10.137 4.407-19.962 5.731-28.821 4.836l.209-.215c19.675-4.183 39.441-13.113 57.621-26.886M491.866 311.782c-6.815 10.997-15.245 19.602-24.325 25.411-8.905 5.697-17.921 8.45-26.381 8.972l.17-.249c17.764-7.028 35.113-18.452 50.536-34.134M496.047 286.088c-5.103 11.387-11.973 20.763-19.794 27.592-7.615 6.656-15.69 10.598-23.57 12.381l.167-.352c15.679-9.354 30.526-22.667 43.197-39.621M496.739 261.128c-3.507 11.493-8.885 21.324-15.455 28.912-6.325 7.307-13.387 12.183-20.551 15.034.051-.166.103-.332.152-.498 13.509-11.153 25.854-25.786 35.854-43.448M494.365 237.374c-2.031 11.351-5.999 21.387-11.342 29.476-5.064 7.675-11.068 13.225-17.418 16.943.035-.225.072-.45.106-.675 11.306-12.448 21.198-27.874 28.654-45.744M489.329 215.183c-.681 11.004-3.325 21.02-7.481 29.391-3.893 7.849-8.881 13.869-14.406 18.253.004-.243.006-.485.011-.727 9.758-13.751 16.935-29.725 21.876-46.917M482.011 194.814c.545 10.496-.872 20.298-3.893 28.753-2.82 7.9-6.864 14.242-11.598 19.119l-.082-.732c7.436-14.011 12.745-30.384 15.573-47.14M472.767 176.435c1.645 9.856 1.355 19.29-.592 27.662-1.827 7.863-4.992 14.394-8.976 19.635l-.168-.693c5.002-13.742 8.839-30.462 9.736-46.604M461.926 160.14c2.619 9.125 3.354 18.062 2.411 26.205-.897 7.733-3.232 14.357-6.498 19.842l-.194-.513c3.308-13.721 5.157-30.004 4.281-45.534M449.791 145.958c3.47 8.323 5.125 16.668 5.107 24.464-.018 7.515-1.56 14.132-4.128 19.753-.056-.111-.115-.221-.172-.332 1.727-13.534 1.729-29.061-.807-43.885M436.64 133.862c4.199 7.485 6.667 15.168 7.493 22.519.808 7.197.026 13.691-1.855 19.354l-.119-.18c.231-13.179-1.44-27.708-5.519-41.693M422.719 123.783c4.812 6.632 7.987 13.602 9.57 20.436 1.569 6.776 1.514 13.054.306 18.649l-.056-.065a132.849 132.849 0 0 0-9.82-39.02M330.653 409.663c22.46 9.527 46.8 14.984 71.992 15.473-16.795 3.032-33.511 2.12-48.191-1.898-9.168-2.511-17.212-6.093-24.016-10.35.139-.37.215-.77.215-1.189" fill="#409656"/><path d="M400.567 125.312c-2.968-5.525-5.405-10.864-7.124-16.072 7.681 10.515 13.228 21.492 16.961 32.442-3.529-5.414-6.867-10.842-9.837-16.37M386.981 118.924c-3.438-4.91-6.338-9.696-8.523-14.426 8.459 9.19 14.949 18.953 19.735 28.855-3.979-4.74-7.773-9.519-11.212-14.429M373.119 113.993c-3.819-4.289-7.096-8.525-9.668-12.766 9.052 7.904 16.306 16.45 21.981 25.263-4.334-4.074-8.493-8.202-12.313-12.497M330.653 407.352c11.81 2.921 22.997 5.454 33.771 7.934 14.096 3.244 26.762 6.261 38.221 9.851-25.192-.49-49.532-5.947-71.992-15.474" fill="#006f2f"/><path d="M330.061 404.167c72.137-5.443 122.813-57.071 132.31-123.427 9.665-68.999-25.649-130.028-82.331-155.747-7.003-3.294-14.785-5.806-16.682-6.448l.09-.276 4.476 1.382c21.049 6.777 39.182 17.847 53.988 31.895-2.988-6.081-5.776-12.142-8.184-18.266-2.406-6.124-4.298-11.996-5.474-17.661 6.714 11.846 11.142 24.006 13.661 35.93l.002.002a141.194 141.194 0 0 1 10.527 11.138c-2.308-6.606-4.419-13.173-6.149-19.756-1.756-6.698-3.018-13.063-3.576-19.15a132.853 132.853 0 0 1 9.821 39.019l.055.066a143.375 143.375 0 0 1 9.364 12.393c-1.545-7.023-2.899-13.974-3.88-20.913-1.019-7.214-1.573-14.043-1.439-20.487 4.079 13.986 5.75 28.514 5.519 41.693l.119.18a146.383 146.383 0 0 1 8.041 13.573c-.726-7.317-1.269-14.554-1.454-21.731-.197-7.671.036-14.878.926-21.618 2.537 14.824 2.535 30.351.807 43.885l.172.332a148.932 148.932 0 0 1 6.567 14.691c.135-7.507.439-14.921 1.081-22.241.708-8.03 1.798-15.543 3.508-22.485.876 15.529-.972 31.813-4.281 45.534l.194.513a151.503 151.503 0 0 1 4.926 15.789c1.032-7.62 2.216-15.127 3.719-22.517 1.688-8.28 3.701-15.982 6.283-23.024-.897 16.141-4.734 32.861-9.736 46.603l.168.693a153.578 153.578 0 0 1 3.077 16.894c1.982-7.677 4.094-15.231 6.507-22.64 2.736-8.395 5.729-16.157 9.228-23.172-2.828 16.757-8.137 33.13-15.573 47.14l.082.733a154.63 154.63 0 0 1 .947 18.015c3.021-7.696 6.141-15.267 9.545-22.658 3.848-8.344 7.868-16.017 12.317-22.86-4.942 17.192-12.119 33.165-21.876 46.917l-.011.726c-.124 6.345-.64 12.72-1.555 19.088 4.195-7.662 8.448-15.199 12.968-22.517 5.008-8.108 10.093-15.519 15.51-22.023-7.456 17.869-17.348 33.295-28.655 45.743l-.105.676a156.27 156.27 0 0 1-4.456 19.886c5.529-7.475 11.058-14.842 16.822-21.953 6.206-7.655 12.377-14.612 18.768-20.599-10 17.663-22.345 32.295-35.854 43.449l-.152.497a157.89 157.89 0 0 1-7.597 20.007c6.951-6.964 13.818-13.858 20.869-20.47 7.43-6.961 14.692-13.25 22.042-18.523-12.671 16.954-27.517 30.267-43.197 39.621l-.167.352a143.89 143.89 0 0 1-11.043 19.398c8.405-6.088 16.624-12.154 24.95-17.937 8.659-6.017 16.999-11.393 25.276-15.74-15.423 15.682-32.773 27.106-50.536 34.135l-.17.249a138.98 138.98 0 0 1-14.643 17.929c9.815-4.806 19.318-9.682 28.831-14.281 9.874-4.776 19.258-9.001 28.402-12.205-18.179 13.774-37.946 22.703-57.622 26.887-.069.071-.138.143-.209.214a137.475 137.475 0 0 1-18.011 15.473c10.987-3.124 21.541-6.405 31.985-9.467 11.054-3.239 21.422-6.06 31.35-7.884-20.806 11.16-42.759 16.98-64.047 17.859l-.394.279a139.048 139.048 0 0 1-20.923 12.152c11.753-1.145 22.974-2.544 33.96-3.803 12.172-1.397 23.437-2.526 34.035-2.76-23.164 7.848-46.951 10.017-69.459 7.242a143.573 143.573 0 0 1-24.441 8.567c12.132.947 23.655 1.556 34.832 2.207 13.197.766 25.24 1.581 36.36 3.161-25.235 3.929-50.51 1.992-73.869-4.718a150.786 150.786 0 0 1-26.644 3.712v-.644c0-.709-.218-1.37-.592-1.918" fill="#006f2f"/><path d="M316.409 388.565h12.12a50.702 50.702 0 0 0 4.7-8.676l.854-2.026.032-.075h-35.411l.885 2.101a50.661 50.661 0 0 0 3.526 6.849c.379.617.77 1.227 1.174 1.827" fill="#921813"/><path d="M325.364 415.104h1.884a3.406 3.406 0 0 0 3.405-3.405v-5.614a3.397 3.397 0 0 0-2.092-3.141l8.431-9.667a8.292 8.292 0 0 0 .707-9.959l-3.584-5.529-.032.075-.854 2.025a50.66 50.66 0 0 1-4.699 8.676h-.001a50.777 50.777 0 0 1-5.478 6.789l-6.642 6.913-6.642-6.913a50.855 50.855 0 0 1-6.652-8.615 50.72 50.72 0 0 1-3.526-6.849l-.886-2.101-3.584 5.529a8.29 8.29 0 0 0 .708 9.959l8.43 9.667a3.408 3.408 0 0 0-2.091 3.141v5.614a3.404 3.404 0 0 0 3.404 3.405h1.885c-5.366 5.729-12.472 10.883-21.782 15.31h13.196s10.075-8.206 13.628-15.31h7.824c3.553 7.104 13.628 15.31 13.628 15.31h13.197c-9.311-4.427-16.417-9.581-21.782-15.31" fill="#c93b42"/><path d="m298.875 430.414-.039 12.931c8.112-9.011 14.503-18.14 17.573-27.495 3.07 9.355 9.459 18.484 17.573 27.495l-.039-12.931s-10.075-8.207-13.629-15.31h-7.81c-3.554 7.103-13.629 15.31-13.629 15.31" fill="#921813"/><path d="M316.409 302.485c-24.494 0-44.351-19.856-44.351-44.351 0-24.494 19.857-44.35 44.351-44.35s44.351 19.856 44.351 44.35c0 24.495-19.857 44.351-44.351 44.351" fill="#fff"/><path d="M349.385 261.213c-9.62 0-22.911 6.821-30.515 11.24-1.474-16.234-.918-26.744-.458-32.188.003-.035.043-.052.073-.033 4.705 2.968 3.384 11.255 2.4 13.624-.02.048.05.082.084.042 5.863-6.94 2.999-14.6 1.795-16.542-.027-.042.034-.087.074-.054 5.243 4.27 5.011 9.925 4.73 13.095-.004.049.065.067.088.023 2.13-4.196 2.78-11.298-3.756-17.056-.036-.031-.005-.092.041-.081 5.84 1.412 8.206 6.95 8.251 11.085.001.069.006.141.006.21 0 .053.076.057.089.006.839-3.091.654-5.603-.095-7.616-1.692-4.548-6.273-6.538-8.503-6.814-.054-.007-.044-.086.009-.091 4.349-.406 6.987.949 8.494 2.278.932.821 1.434 1.633 1.635 2.011.024.044.093.017.088-.032-.164-1.669-.801-3.049-1.723-4.149-2.581-3.076-7.421-3.936-10.554-2.617-.042.018-.079-.031-.054-.068 2.027-2.916 6.075-3.218 8.219-2.2.045.021.086-.034.054-.072-3.211-3.682-8.491-3.767-11.306.501-.019.028-.06.029-.076 0a19.365 19.365 0 0 1-.877-1.789c-.602-1.391-.872-2.955-1.13-4.513-.012-.067-.107-.067-.118 0-.259 1.558-.528 3.122-1.131 4.513-.276.638-.57 1.243-.877 1.789-.017.029-.058.028-.076 0-2.816-4.268-8.095-4.183-11.306-.501-.032.038.01.093.054.072 2.143-1.018 6.192-.716 8.219 2.2.026.037-.012.086-.054.068-3.132-1.319-7.972-.459-10.554 2.617-.923 1.1-1.559 2.48-1.722 4.149-.005.049.063.076.086.032.203-.378.705-1.19 1.636-2.011 1.508-1.329 4.145-2.684 8.493-2.278.054.005.064.084.01.091-2.23.276-6.81 2.266-8.503 6.814-.749 2.013-.934 4.525-.095 7.616.014.051.09.047.089-.006-.001-.069.005-.141.006-.21.046-4.135 2.41-9.673 8.251-11.085.046-.011.077.05.041.081-6.536 5.758-5.886 12.86-3.756 17.056.024.044.093.026.088-.023-.281-3.17-.512-8.825 4.731-13.095.039-.033.1.012.074.054-1.205 1.942-4.068 9.602 1.794 16.542.034.04.104.006.084-.042-.985-2.369-2.305-10.656 2.4-13.624.031-.019.071-.002.074.033.458 5.444 1.015 15.954-.459 32.188-7.604-4.419-20.894-11.24-30.514-11.24-2.96 0-5.432.788-5.271.813 12.722 2.008 27.788 10.857 34.127 14.877-4.091 2.555-17.183 10.652-18.754 10.652-.796 0-.909-.96-1.583-.96-.607 0-.607.442-.607.625 0 2.722 3.712 4.485 6.711 3.08l18.352-10.612 18.353 10.612c2.999 1.405 6.711-.358 6.711-3.08 0-.183 0-.625-.608-.625-.672 0-.785.96-1.583.96-1.57 0-14.663-8.097-18.753-10.652 6.338-4.02 21.406-12.869 34.127-14.877.162-.025-2.311-.813-5.27-.813" fill="#006f2f"/><path d="M389.819 251.624c6.135.508 19.098 2.103 23.063-.749.22 1.124-3.979 5.234-16.934 4.374-10.9-.721-25.094-2.314-29.034.964v.002c1.032-4.671 10.225-5.643 22.905-4.591M191.041 298.685l1.395 2.741 34.019-17.35M431.219 284.792l-4.593.098 6.676 3.048 1.976-3.232-2.265.048M425.613 303.104l-31.844-16.578a23.773 23.773 0 0 0-14.235-2.46l14.907 20.952 23.418 13.231-1.452 3.494 11.461 5.84 3.427-6.726c3.298-6.475.762-14.398-5.682-17.753M356.101 330.857a29.687 29.687 0 0 0-2.104-3.631c1.448 11.803-6.142 17.198-6.142 17.198l5.001-3.464s-4.114 11.393-13.267 15.733c-9.155 4.341-23.18 8.976-23.18 10.445 0-1.488-14.769-6.104-23.922-10.445-9.155-4.34-13.267-15.733-13.267-15.733l7.501 3.132 2.702-.509c-2.931-1.829-5.835-4.836-7.875-8.381a23.504 23.504 0 0 1-1.253-2.505c-.751-1.759-1.272-3.605-1.474-5.471a29.568 29.568 0 0 0-2.105 3.631 25.553 25.553 0 0 0-.707 1.595c-2.38 5.907-2.082 11.878.882 18.081l2.042-2.855c5.564 16.257 29.025 15.456 37.474 27.145l.001-.003.003.001c8.448-11.687 31.91-10.887 37.474-27.142l2.042 2.853c2.963-6.202 3.261-12.173.882-18.079a25.083 25.083 0 0 0-.708-1.596M243 251.624c-6.136.508-19.1 2.103-23.064-.749-.22 1.124 3.978 5.234 16.934 4.374 10.9-.721 25.094-2.314 29.034.964v.002c-1.033-4.671-10.225-5.643-22.904-4.591M256.877 247.126a12.534 12.534 0 0 0-1.307-1.761c-6.37-7.156-18.63-3.114-31.459-1.949-11.091 1.007-15.448.125-19-1.409-2.343-1.013-2.52-1.411-2.52-1.411s-.03.073-.03.185c0 1.637 5.561 7.555 21.852 6.392 14.7-1.047 26.307-3.836 32.464-.047M375.941 247.126c.402-.652.839-1.235 1.307-1.761 6.37-7.156 18.63-3.114 31.459-1.949 11.092 1.007 15.448.125 18.999-1.409 2.344-1.013 2.52-1.411 2.52-1.411s.031.073.031.185c0 1.637-5.562 7.555-21.852 6.392-14.7-1.047-26.307-3.836-32.464-.047" fill="#637378"/><path d="m411.47 314.636 6.389 3.613-1.452 3.494M263.492 215.847l-14.155-7.213-1.568-.798-2.922-1.489.389-.704a2 2 0 0 0-.808-2.657l-8.865-4.941-1.53-.852-13.754-7.664-1.527-.852-9.408-5.243-2.022 3.968-3.696 7.254-1.95 3.828 2.332 1.165.128-.252a7.857 7.857 0 0 1 10.542-3.447l28.234 14.256-1.808 3.546 1.466-.35a12.512 12.512 0 0 1 8.457 1.014l27.621 13.913a48.893 48.893 0 0 1 3.301-3.079l-16.873-8.596M347.855 344.424s7.59-5.395 6.142-17.198c-.203 1.866-.723 3.712-1.475 5.471a23.217 23.217 0 0 1-1.252 2.505c-2.041 3.545-4.944 6.553-7.876 8.381" fill="#b1bdc4"/><path d="M331.182 355.327c-.916 0-1.807-.089-2.651-.27l-.001.001c-4.589 1.396-7.619 2.786-9.502 3.825-1.884 1.041-2.619 1.733-2.619 1.733v-57.175a55.575 55.575 0 0 1-4.814-.203l-.001 41.557c.01 3.348-.894 5.98-2.69 7.821-5.647 5.792-19.245 1.963-23.942-8.191l1.759-.333-7.501-3.132s4.112 11.394 13.267 15.734c9.153 4.341 23.922 8.957 23.922 10.444 0-1.469 14.025-6.103 23.18-10.444 9.153-4.34 13.267-15.734 13.267-15.734l-5.001 3.465c-3.201 6.92-10.537 10.902-16.673 10.902M321.954 154.241c-1.101.266-2.834.541-5.544.714h-.001c-1.686.106-3.474.125-6.002.125 0 0 .043.388.529.87.164.161.374.332.651.502.679.418 1.747.832 3.422 1.082.426.064.889.116 1.4.156v55.226a55.067 55.067 0 0 0-13.304 1.609v-20.03c0-1.248.705-2.389 1.823-2.947l2.825-1.599a3.816 3.816 0 0 0-1.864 3.957l.161.935 2.948 17.195v-53.843c0-5.143.938-10.243 2.766-15.052l4.645-12.934v19.334h.001c0 2.804.308 4.452 5.544 4.7M233.444 297.792l-34.026 17.333 1.396 2.742M234.689 258.659c-.015-.021-.031-.041-.043-.062h-.001a.788.788 0 0 0 .044.062" fill="#b1bdc4"/><path d="m265.905 256.215-.001-.001c-6.215-1.815-27.208 2.98-31.259 2.384h.001a.62.62 0 0 0 .039.055c.932 1.13 8.504 1.025 17.364.757 2.827-.086 8.678-.675 14.187 1.248-.221-3.686-.327-4.417-.331-4.443" fill="#b1bdc4"/><path d="M265.815 255.858c-.754-2.756-3.321-6.155-7.885-8.294a12.373 12.373 0 0 0-1.053-.437c-4.995-1.798-9.934.384-26.336 3.15-3.055.515-9.163.925-10.588.602a.062.062 0 0 1-.018-.003c3.966 2.852 16.929 1.257 23.065.748 12.679-1.053 21.872-.079 22.905 4.59a3.948 3.948 0 0 0-.09-.356" fill="#b1bdc4"/><path d="M256.438 246.433c-2.399-3.718-4.753-5.955-7.272-7.228-5.269-2.662-11.26-1.105-19.899-.052-11.696 1.425-22.568 3.009-26.676 1.443 0 0 .176.399 2.521 1.411 3.552 1.534 7.907 2.417 19 1.409 12.828-1.165 25.088-5.207 31.458 1.95.468.525.905 1.109 1.307 1.76a41.917 41.917 0 0 0-.439-.693M398.129 258.659c.014-.021.03-.041.043-.062a.77.77 0 0 1-.043.062" fill="#b1bdc4"/><path d="M366.914 256.215v-.001c6.215-1.815 27.207 2.98 31.259 2.384-.012.018-.027.037-.041.055-.932 1.13-8.503 1.025-17.364.757-2.827-.086-8.677-.675-14.186 1.248.222-3.686.327-4.417.332-4.443" fill="#b1bdc4"/><path d="M367.002 255.858c.754-2.756 3.321-6.155 7.886-8.294.353-.166.703-.311 1.052-.437 4.996-1.798 9.935.384 26.337 3.15 3.055.515 9.163.925 10.587.602a.052.052 0 0 0 .018-.003c-3.966 2.852-16.928 1.257-23.064.748-12.679-1.053-21.873-.079-22.905 4.59.023-.118.055-.237.089-.356" fill="#b1bdc4"/><path d="M376.379 246.433c2.4-3.718 4.754-5.955 7.273-7.228 5.269-2.662 11.259-1.105 19.898-.052 11.696 1.425 22.568 3.009 26.677 1.443 0 0-.177.399-2.522 1.411-3.551 1.534-7.906 2.417-18.999 1.409-12.829-1.165-25.088-5.207-31.459 1.95a12.519 12.519 0 0 0-1.306 1.76c.147-.237.292-.466.438-.693M250.353 271.89l-3.185 1.623-12.071 1.823-1.723.261-15.491 2.339-1.72.261-1.502.227a100.83 100.83 0 0 0-15.275 4.433v.002a100.871 100.871 0 0 0-10.176 4.493l-3.131 1.595 4.961 9.739 35.416-14.609-34.019 17.35-3.498 1.754-1.567.787a136.044 136.044 0 0 0 6.019 14.184 7.878 7.878 0 0 1 3.442-10.596l71.444-36.359a41.123 41.123 0 0 1-1.68-7.045c-.215-.073-.43-.143-.645-.211l-13.995 7.131M254.192 231.491c-4.344-2.575-9.182-3.976-15.048-4.526a56.352 56.352 0 0 0-1.814-.142 72.651 72.651 0 0 0-4.083-.139c-3.856-.025-8.105.202-12.633.49-.615.039-1.236.078-1.861.119h-.001c-2.381.157-4.693.311-7.009.447-3.216.189-6.426.337-9.488.375-.606.007-1.206.01-1.799.008h.001l-2.034-.007c-3.881-.041-9.919-1.136-13.531-2.216h-.001a21.077 21.077 0 0 1-1.651-.562 6.4 6.4 0 0 1-.927-.44 2.115 2.115 0 0 1-.201-.137c-.004 0 .366.396.369.398 10.216 10.798 25.286 6.984 54.449 5.841 13.713-.539 22.665 9.572 29.671 21.179a40.925 40.925 0 0 1 1.184-5.424l-.001-.001c-1.696-3.295-4.047-7.277-6.724-9.839-1.74-1.747-3.518-3.229-5.38-4.483-.49-.328-.986-.642-1.488-.941" fill="#b1bdc4"/><path d="M377.137 232.433c.49-.33.986-.644 1.488-.942v.001c4.344-2.575 9.182-3.977 15.048-4.528a59.291 59.291 0 0 1 1.816-.141 72.615 72.615 0 0 1 4.082-.139c3.855-.026 8.104.202 12.632.489l1.863.12v.001c2.381.155 4.692.31 7.009.446 3.216.188 6.426.337 9.488.375.605.007 1.205.01 1.799.008l2.032-.007c3.882-.041 9.92-1.136 13.532-2.217h-.001a20.124 20.124 0 0 0 1.653-.561c.382-.153.696-.3.926-.44.076-.047.144-.092.201-.137.004.001-.366.396-.369.399-10.215 10.797-25.286 6.983-54.449 5.839-13.713-.537-22.665 9.573-29.671 21.18a41.007 41.007 0 0 0-1.183-5.425l.001-.001c1.695-3.293 4.046-7.276 6.724-9.838 1.739-1.747 3.519-3.23 5.379-4.482" fill="#b1bdc4"/><path d="M316.409 80.124c-.135.892-.656 1.68-1.397 2.564-.742.884-1.703 1.865-2.719 3.145-5.316 2.604-20.237.902-20.237 15.779 0 4.062 1.917 7.95 5.244 10.443-4.143-.924-8.011-3.959-9.365-10.17-1.264-6.629 2.508-12.763 8.477-15.76 5.684-2.842 16.913-2.586 19.457-6.028.179.018.358.027.54.027M286.777 91.398a28.67 28.67 0 0 0-.862 1.61c-.044.09-.092.181-.135.277h-.001c-4.853 1.154-8.467 5.506-8.467 10.713 0 2.079.443 4.113 1.587 5.677.222.3.449.579.684.84l.005.006-.008-.006c-5.159-5.049-4.689-11.38-1.075-16.646 2.086-3.04 5.219-5.724 8.921-7.601.025-.013.047-.026.072-.038-.499 1.439-.832 3.38-.721 5.168M283.018 115.718h-.002l-.015.004c4.555 2.644 8.334 8.123 8.935 13.496 8.016-3.119 13.675-4.988 24.473-4.988-11.16-10.527-27.449-8.348-33.391-8.512M316.409 80.124c.135.892.657 1.68 1.397 2.564.743.884 1.703 1.865 2.719 3.145 5.317 2.604 20.237.902 20.237 15.779 0 4.062-1.917 7.95-5.244 10.443 4.143-.924 8.011-3.959 9.365-10.17 1.264-6.629-2.508-12.763-8.476-15.76-5.685-2.842-16.913-2.586-19.458-6.028a5.379 5.379 0 0 1-.54.027M346.041 91.398c.293.51.582 1.044.861 1.61.046.09.093.181.136.277h.001c4.854 1.154 8.466 5.506 8.466 10.713 0 2.079-.441 4.113-1.587 5.677-.22.3-.448.579-.682.84-.004.002-.004.004-.004.004l.006-.004c5.158-5.049 4.689-11.38 1.075-16.646-2.086-3.04-5.218-5.724-8.922-7.601-.023-.013-.046-.026-.071-.038.498 1.439.832 3.38.721 5.168" fill="#95853a"/><path d="M345.32 86.23c.024.013.049.025.071.038 3.703 1.877 6.835 4.562 8.922 7.601 3.613 5.266 4.084 11.597-1.075 16.646l-.008.007-.004.003-.002.001c-3.951 4.399-9.761 3.498-11.473 3.105-.327-.08-.437-.109-.473-.121 1.092.259 7.479-4.339 7.479-11.898 0-1.584-.194-3.153-.503-4.584-.311-1.43-.742-2.72-1.214-3.743h-.002c-.043-.096-.09-.187-.135-.276a28.067 28.067 0 0 0-.862-1.611c-7.376-12.798-18.957-8.692-25.108-13.835a5.3 5.3 0 0 1-1.67 1.724 5.227 5.227 0 0 1-2.314.81c2.545 3.442 13.772 3.186 19.458 6.029 5.968 2.996 9.74 9.13 8.476 15.759-1.354 6.211-5.222 9.246-9.365 10.17-3.103-.679-5.271-1.224-7.546-1.626-2.275-.403-4.657-.659-8.188-.762a28.956 28.956 0 0 0 2.22-6.605c.415-1.98.655-4.034.655-6.153 0-3.749-.674-7.459-2.134-11.076l-.002-.002c-2.03-2.558-3.843-3.922-4.114-5.704v-.003.001-.001.003c-.272 1.782-2.084 3.146-4.113 5.704l-.003.002a29.366 29.366 0 0 0-2.134 11.076c0 2.119.24 4.173.655 6.153a28.862 28.862 0 0 0 2.221 6.605c-3.532.103-5.914.359-8.19.762-2.274.402-4.442.947-7.546 1.626-4.142-.924-8.01-3.959-9.364-10.17-1.264-6.629 2.508-12.763 8.477-15.759 5.684-2.843 16.913-2.587 19.457-6.029a5.236 5.236 0 0 1-2.314-.81 5.314 5.314 0 0 1-1.671-1.724c-6.15 5.143-17.731 1.037-25.107 13.835-.294.51-.582 1.045-.862 1.611-.044.089-.092.18-.135.276h-.001c-.474 1.023-.903 2.313-1.214 3.743-.31 1.431-.504 3-.504 4.584 0 7.559 6.387 12.157 7.479 11.898-.035.012-.147.041-.472.121-1.713.393-7.523 1.294-11.475-3.105l-.002-.001-.003-.003-.008-.007c-5.159-5.049-4.689-11.38-1.075-16.646 2.086-3.039 5.219-5.724 8.921-7.601l.072-.038c-9.447.44-16.975 8.213-16.975 17.768 0 2.97.738 5.765 2.024 8.227.221.422.462.83.714 1.232.329-.018.653-.05.986-.05 3.185 0 6.182.824 8.755 2.316l.014-.004h.003c5.942.163 22.229-2.015 33.389 8.511h.003c11.159-10.526 27.446-8.348 33.388-8.511h.002a.27.27 0 0 0 .012.002c2.575-1.49 5.572-2.314 8.759-2.314.332 0 .656.032.984.05.252-.402.494-.81.715-1.232a17.728 17.728 0 0 0 2.024-8.227c0-9.555-7.529-17.328-16.975-17.768" fill="#d4b978"/><path d="M349.799 115.718h.002l.016.004c-4.556 2.644-8.335 8.123-8.936 13.496-8.016-3.119-13.674-4.988-24.473-4.988 11.161-10.527 27.449-8.348 33.391-8.512" fill="#95853a"/><path d="M316.409 302.484c-24.494 0-44.351-19.856-44.351-44.35s19.857-44.351 44.351-44.351 44.351 19.857 44.351 44.351-19.857 44.35-44.351 44.35m134.297-77.723c.004 0-.366.395-.369.399-10.216 10.797-25.286 6.983-54.449 5.839-13.712-.537-22.666 9.572-29.671 21.179a41.03 41.03 0 0 0-1.184-5.424 41.87 41.87 0 0 0-1.998-5.443 43.575 43.575 0 0 0-.961-2.011c-.012-.02-.021-.042-.033-.064a43.26 43.26 0 0 0-3.226-5.328l43.729-22.281a48.103 48.103 0 0 0 19.829-18.745l-12.747 6.434c-.238.127-5.942 3.233-4.362 7.789 0 0-4.911-5.608-5.347-9.479 0 0-.235 3.171.126 6.527l-46.471 23.584c-2.046-2.028-4.228-3.759-6.379-5.239l15.092-19.412-.73-6.131 34.16-44.05-1.481-1.169-31.549 40.609-20.755 26.936-.177-.098h-.016c-4.392-2.335-8.046-3.671-12.023-4.659v-20.029a3.297 3.297 0 0 0-1.823-2.948l-4.073-2.306v-31.048c0-5.143-.935-10.244-2.764-15.052l-4.645-12.934v19.334h.001c0 2.804.308 4.452 5.543 4.7-1.1.266-2.833.541-5.543.714h-.001c-1.687.107-3.474.125-6.002.125 0 0 .076.69 1.18 1.371.678.418 1.746.833 3.423 1.082.425.064.89.117 1.399.156v55.227a55.061 55.061 0 0 0-13.304 1.609c-4.245 1.051-9.272 3.053-12.252 4.71l-52.236-67.457-1.514 1.127 34.16 44.05-.73 6.131 15.075 19.39a46.08 46.08 0 0 0-3.659 2.775 48.137 48.137 0 0 0-3.301 3.078l-27.621-13.914a12.506 12.506 0 0 0-8.457-1.013l-1.466.35 1.808-3.547-28.234-14.255a7.859 7.859 0 0 0-10.543 3.448l-.127.25 34.106 15.727a2.002 2.002 0 0 0 2.626-.907l.364-.716 34.815 17.634c-3.678 4.504-6.502 9.739-8.134 15.368a41.03 41.03 0 0 0-1.184 5.424c-7.005-11.607-15.958-21.716-29.671-21.179-29.163 1.144-44.233 4.958-54.449-5.839-.003-.004-.372-.399-.369-.399-.273.796.666 2.474 1.166 3.212 2.658 3.926 10.102 9.705 26.132 8.841 16.318-.875 24.7-1.467 30.163-.971 3.74.339 6.872 1.538 9.593 3.362 2.519 1.273 4.873 3.51 7.272 7.228.147.226.293.456.439.693l.001.001c.348.125.698.271 1.052.436 4.564 2.14 7.131 5.538 7.885 8.295.036.119.067.237.09.356v.001c.004.026.11.757.331 4.443-5.508-1.924-11.36-1.334-14.187-1.248-8.86.268-16.432.373-17.364-.757a.017.017 0 0 1 .003.004c.866 1.213 6.093 3.612 14.946 3.419 3.99-.087 10.454.025 16.318 1.866.216.067.431.137.645.209a41.09 41.09 0 0 0 1.68 7.046l-71.443 36.359a7.878 7.878 0 0 0-3.443 10.596l6.027-3.027 34.026-17.333-32.63 20.074 4.95 9.717 3.132-1.596c8.047-4.1 15.508-9.26 22.183-15.342l23.372-23.561 17.017-8.67.014.027a44.613 44.613 0 0 0 4.606 6.736c5.673 6.868 13.425 12.178 22.311 15.26a54.476 54.476 0 0 0 13.197 2.8 55.55 55.55 0 0 0 4.813.204v57.175s2.943-2.767 12.121-5.558c-1.798-.386-3.393-1.189-4.616-2.443-1.795-1.841-2.699-4.472-2.691-7.82v-41.558a54.486 54.486 0 0 0 13.197-2.8c8.885-3.081 16.638-8.392 22.311-15.261a44.924 44.924 0 0 0 3.771-5.297h-.014a43.381 43.381 0 0 0 2.306-4.329l.011.012 16.728 8.504a21.259 21.259 0 0 0-9.58-9.742l-5.545-2.785c.909-2.643 1.46-4.981 1.814-7.388.213-.072.428-.142.644-.209 5.865-1.841 12.329-1.953 16.318-1.866 8.854.193 14.08-2.206 14.945-3.417l.004-.006c-.932 1.13-8.504 1.025-17.364.757-2.827-.086-8.678-.676-14.187 1.248.222-3.686.328-4.417.332-4.443v-.001c.022-.119.053-.237.089-.356.754-2.757 3.321-6.155 7.885-8.295a12.36 12.36 0 0 1 1.053-.436v-.001c.147-.237.292-.467.439-.693 2.399-3.718 4.754-5.955 7.272-7.228 2.722-1.824 5.853-3.023 9.593-3.362 5.463-.496 13.845.096 30.164.971 16.03.864 23.473-4.915 26.131-8.841.541-.799 1.431-2.438 1.166-3.212" fill="#637378"/><path d="m435.278 284.706-1.976 3.232-6.675-3.048-10.391-4.745-1.616-.738-5.783-2.641-9.675.097-1.788.016-13.828.137-2.082-1.06-1.581-.806-14.373-7.344a42.794 42.794 0 0 1-1.101 3.734l5.545 2.784c3.945 1.973 7.403 5.307 9.522 9.627l.058.115-.001-.001.001.001c4.886-.676 9.86.183 14.235 2.46l31.844 16.578c6.444 3.355 8.98 11.278 5.682 17.753l-3.427 6.725 18.871-37.035M341.737 219.183h.016l.177.099 20.755-26.936 31.549-40.61-2.649-2.09-26.3 33.789-22.14 28.591 19-31.051-19.52 23.791-2.991.109-8.31 10.076c3.377.946 6.619 2.216 10.413 4.232" fill="#b1bdc4"/><path d="m362.134 180.986.011-.01-2.59-2.05c-.65-.46-1.21-.86-1.86-1.02-1.901-.46-3.481 1.05-3.89 4.59l-1.585 10.574" fill="#637378"/><path d="M353.805 182.495c.036-.311.092-.586.146-.866a84.229 84.229 0 0 0-28.733-8.32v1.75a82.428 82.428 0 0 1 28.448 8.359" fill="#949fa3"/><path d="m365.233 183.503-3.088-2.527-19 31.05" fill="#637378"/><path d="m238.617 151.778 52.236 67.458c2.611-1.453 6.794-3.169 10.646-4.28l-8.316-10.081-2.99-.11-19.519-23.79-3.141 2.46-26.3-33.789" fill="#b1bdc4"/><path d="m280.597 193.07-1.584-10.575c-.41-3.54-1.99-5.05-3.891-4.59-.649.161-1.21.561-1.859 1.02l-2.59 2.05" fill="#637378"/><path d="M278.867 181.621c.054.282.109.561.146.874l.139.931a82.49 82.49 0 0 1 28.447-8.368v-1.748a84.189 84.189 0 0 0-28.732 8.311" fill="#949fa3"/><path d="m289.672 212.025-18.999-31.05-3.141 2.46" fill="#637378"/><path d="m382.525 204.544-1.582.807-14.322 7.297-1.605.817-17.782 9.062c2.136 1.474 4.305 3.194 6.338 5.21l46.471-23.584c-.361-3.356-.126-6.527-.126-6.527v.001-.001c.054.484.178.995.354 1.519.353 1.047.911 2.146 1.529 3.181.309.518.633 1.02.954 1.491a38.007 38.007 0 0 0 2.51 3.288 4.835 4.835 0 0 1-.276-1.638c.023-2.345 1.848-4.171 3.202-5.206a12.64 12.64 0 0 1 1.115-.761c.422-.254-.857.411 13.068-6.618a48.29 48.29 0 0 0-5.615-.246l-.001-.001a48.058 48.058 0 0 0-20.037 4.698v-.001c-.39.188-.779.377-1.168.574" fill="#b1bdc4"/><path d="M370.33 298.4a67.465 67.465 0 0 0 7.525-12.597l-1.55-.79c-1.946 4.265-4.359 8.266-7.13 11.985M379.965 313.989c3.563-4.026 6.776-8.373 9.534-13.022l-1.105-1.549a83.672 83.672 0 0 1-9.531 13.231M391.109 327.549c4.409-4.718 8.401-9.831 11.861-15.317l-1.514-.855c-3.354 5.3-7.209 10.243-11.462 14.815M402.23 341.081a120.483 120.483 0 0 0 13.765-17.012l-1.068-1.534a118.822 118.822 0 0 1-13.806 17.196M231.698 339.731a118.819 118.819 0 0 1-13.481-16.704c-.484.32-.985.603-1.473.914l-.005.003a120.468 120.468 0 0 0 13.849 17.138M242.823 326.193c-3.989-4.288-7.633-8.903-10.832-13.835 0 0-1.129 1.024-1.303 1.185 3.259 4.994 6.963 9.668 11.019 14.008M253.971 312.627c-3.521-4.005-6.689-8.326-9.399-12.955l-1.265 1.276c2.761 4.657 5.976 9.009 9.546 13.04M263.635 297.007a65.803 65.803 0 0 1-5.804-9.272l-1.55.789a67.778 67.778 0 0 0 6.218 9.861M249.748 158.435c-.368.246-.732.494-1.096.744l1.071 1.374c.375-.26.754-.516 1.134-.769 17.493-11.742 38.302-18.867 60.689-19.783l.634-1.763c-23.046.809-44.467 8.101-62.432 20.197M285.87 199.509c.526-.276 1.05-.556 1.585-.817a65.201 65.201 0 0 1 14.333-5.084 4.672 4.672 0 0 1 .882-1.97 67.003 67.003 0 0 0-16.349 5.675c-.53.265-1.052.55-1.575.83M345.363 198.691c.535.262 1.059.542 1.585.818l1.129-1.372a69.733 69.733 0 0 0-1.58-.825 67.082 67.082 0 0 0-16.35-5.676c.441.574.744 1.246.882 1.971a65.26 65.26 0 0 1 14.334 5.084M372.401 174.293l1.071-1.377c-.495-.334-.991-.666-1.491-.991a101.637 101.637 0 0 0-47.002-16.069c.03.581.071 1.16.079 1.743a99.892 99.892 0 0 1 45.813 15.678c.514.333 1.023.672 1.53 1.016M383.095 160.552l1.069-1.373c-.363-.25-.727-.499-1.093-.745-17.966-12.095-39.39-19.387-62.435-20.195l.633 1.761c22.387.916 43.199 8.041 60.692 19.784.38.253.758.509 1.134.768" fill="#949fa3"/><path d="m306.049 194.84 2.949 17.196v-22.795l-1.228.697a3.815 3.815 0 0 0-1.881 3.967M246.312 342.542s1.636 8.896 3.16 16.493c-.096-.245-.207-.475-.308-.715-.102-.238-.786-2.04-2.416-4.565-1.325-1.988-2.584-3.665-4.434-5.56h-.009c-7.115-.974-17.831.022-22.24 5.69a1.774 1.774 0 0 0-.412 1.137c0 .592.293 1.177.842 1.523l28.78 14.26c.298.187.625.275.948.275.473 0 .936-.189 1.276-.528.386-.388.584-.975.763-1.941 6.723-26.377 20.992-48.366 24.459-53.456.553-.811.758-1.012.863-1.118a2.137 2.137 0 0 1 3.025-.005c.412.412.509.753.979 2.186.033.101 4.323 13.177 4.456 13.717.201.719.504 1.267.886 1.648a2.226 2.226 0 0 0 1.623.667c.726 0 1.542-.3 2.382-.885l7.76-5.42s.236-.186.294-.244a1.39 1.39 0 0 0 .406-.986c0-.359-.145-.72-.409-.985-.251-.251-.601-.375-.701-.375l-8.1-1.51c-.01.01-.011.02-.019.039l-.001.001c-1.02 1.86-2.241 4.29-2.991 6.45.102-1.66.573-9.301.76-12.163l-4.591-11.755a3.867 3.867 0 0 0-6.657-.966" fill="#637378"/><path d="M219.918 354.093a.279.279 0 0 1 .012-.018c.015-.026.033-.053.05-.079.027-.037.054-.072.084-.107v-.003c.175-.225.363-.443.556-.652-9.957-9.961-18.218-21.288-24.715-33.946l-1.562.759c6.596 12.88 15.18 24.575 25.332 34.702.036-.227.116-.449.243-.656" fill="#949fa3"/><path d="M220.369 353.516c4.579-5.341 14.979-6.272 21.936-5.32h.009c1.85 1.894 3.109 3.571 4.434 5.559 1.631 2.525 2.314 4.327 2.416 4.565.1.24.213.47.309.716-1.525-7.598-3.161-16.494-3.161-16.494l30.374-39.09a3.87 3.87 0 0 1 6.658.966l4.59 11.755c-.188 2.862-.658 10.502-.759 12.163.75-2.16 1.97-4.591 2.989-6.45l.002-.001c.009-.019.01-.03.019-.039l8.1 1.51c.101 0 .45.123.701.374.131.131.232.285.301.451-.607-2.039-8.043-26.854-8.043-26.854-5.892-3.08-11.069-7.202-15.156-12.15a45.722 45.722 0 0 1-1.315-1.671l-19.368 23.48.22 3.63" fill="#b1bdc4"/><path d="M386.505 342.542s-1.636 8.896-3.159 16.493c.095-.245.208-.475.308-.715.101-.238.785-2.04 2.415-4.565 1.326-1.988 2.585-3.665 4.435-5.56h.009c7.116-.974 17.83.022 22.239 5.69.278.335.412.738.412 1.137 0 .592-.293 1.177-.842 1.523l-28.78 14.26a1.775 1.775 0 0 1-.948.275c-.473 0-.935-.189-1.275-.528-.387-.388-.585-.975-.764-1.941-6.723-26.377-20.992-48.366-24.459-53.456-.552-.811-.757-1.012-.863-1.118a2.137 2.137 0 0 0-3.025-.005c-.412.412-.509.753-.978 2.186-.034.101-4.324 13.177-4.457 13.717-.201.719-.504 1.267-.885 1.648a2.23 2.23 0 0 1-1.623.667c-.727 0-1.542-.3-2.382-.885l-7.761-5.42s-.234-.186-.293-.244a1.385 1.385 0 0 1-.406-.986c0-.359.144-.72.408-.985.251-.251.602-.375.701-.375l8.101-1.51c.01.01.01.02.019.039v.001c1.021 1.86 2.241 4.29 2.991 6.45a4528.3 4528.3 0 0 0-.76-12.163l4.591-11.755a3.869 3.869 0 0 1 6.658-.966" fill="#637378"/><path d="M453.459 257.773c0-9.679-1.013-19.125-2.93-28.243-.329.614-.972 1.461-1.377 1.945a135.354 135.354 0 0 1 2.568 26.298c0 22.823-5.684 44.342-15.704 63.222l.004.002a134.695 134.695 0 0 1-23.82 32.238 10.607 10.607 0 0 1 .554.65c.028.036.057.074.082.111l.053.077.011.021c.127.205.207.428.243.656a137.8 137.8 0 0 0 24.425-32.964l-.002-.002c10.141-19.116 15.893-40.904 15.893-64.011" fill="#949fa3"/><path d="M412.45 353.516c-4.581-5.341-14.979-6.272-21.937-5.32h-.009c-1.85 1.894-3.109 3.571-4.434 5.559-1.631 2.525-2.314 4.327-2.416 4.565-.1.24-.213.47-.308.716 1.524-7.598 3.16-16.494 3.16-16.494l-30.373-39.09a3.868 3.868 0 0 0-6.659.966l-4.59 11.755c.188 2.862.658 10.502.759 12.163-.75-2.16-1.969-4.591-2.99-6.45v-.001c-.01-.019-.01-.03-.019-.039l-8.101 1.51c-.1 0-.45.123-.701.374a1.41 1.41 0 0 0-.301.451c.606-2.039 8.044-26.854 8.044-26.854 5.891-3.08 11.068-7.202 15.155-12.15.452-.547.89-1.105 1.315-1.671l19.368 23.48-.22 3.63" fill="#b1bdc4"/></svg>